<svg xmlns="http://www.w3.org/2000/svg" version="1.1" xmlns:xlink="http://www.w3.org/1999/xlink" xmlns:svgjs="http://svgjs.dev/svgjs" viewBox="0 0 1422 800" opacity="1"><defs><linearGradient x1="50%" y1="0%" x2="50%" y2="100%" id="ssscribble-grad"><stop stop-color="hsl(162, 100%, 58%)" stop-opacity="1" offset="0%"></stop><stop stop-color="hsl(193, 79%, 35%)" stop-opacity="1" offset="100%"></stop></linearGradient></defs><g fill="none" stroke-width="2.75" stroke="url(#ssscribble-grad)" stroke-linecap="round"><path d="M905.46 495.78C1025.69 529.88 1073.08 575.33 1014.67 617.35 899.21 644.08 803.5 640.68 764.76 595.49 779.38 542.08 811.2 500.21 827.57 520.56 841.05 612.78 828.84 725.82 794.73 768.31 760.63 704.44 707.86 588.34 635.28 510.63 559.81 511.45 474.77 566.27 415.45 620.34 409.49 656.41 469.03 647.63 559.49 611.73 592.91 561.25 531.69 511.83 411.46 477.73 342.51 443.62 394.35 428.07 509.68 419.44 605.32 396.24 628.67 351.8 599.62 271.03 525.62 126.76 539.36 159.3 589.35 274.31 623.45 231.82 656.67 132.6 700.78 65.38 759.97 70.03 847.24 148.07 948.92 246.17 1022.67 336.06 1035.51 392.68 964.88 425.06 874.54 442.14 836.51 461.67 905.43 495.77Q905.46 495.78 905.46 495.78" opacity="0.53"></path><path d="M892.45 516.68C1007.07 548.99 1059.78 584.36 1016.35 609.89 912.12 621.95 811.34 604.24 755.71 554.35 748.1 508.4 765.93 483.21 778.47 518.15 794.01 612.19 786.57 717.51 754.26 755.31 721.95 696.86 667.83 586.99 596.3 504.86 527.77 489.89 459.52 529.91 424.78 580.23 471.32 629.39 571.97 558.83 424.45 506.54 356.29 474.23 397.33 452.64 503.15 430.89 603.69 395.31 645.68 336.73 635.05 249.31 570.2 119.49 552.3 180.47 595.1 287.31 627.41 249.51 667.97 157.28 723.87 86.93 789.72 75.67 877.38 135.12 965.96 223.42 1018.95 315.65 1011.24 383.78 934.39 427.71 852.25 458.17 824.29 484.37 892.42 516.67Q892.45 516.68 892.45 516.68" opacity="0.95"></path><path d="M879.43 521.64C988.25 552.16 1045.11 577.73 1015.96 588.64 925.17 589.17 824.27 562.61 755.98 514.01 727.32 478.82 728.13 470.51 732.42 517.74 744.06 611.7 737.64 708.93 707.13 742.3 676.62 689.15 624.9 586.07 560.38 501.41 503.21 472.36 454.77 496.48 443.44 539.06 506 597.27 580.87 566.41 437.43 520.84 370.44 490.33 401.33 462.31 496.47 428.19 598.23 382.5 655.58 314.56 663.58 226.52 616.04 115.7 581.78 201.8 618.6 300.3 649.11 266.93 694.64 182.06 757.14 110.48 824.18 85.61 905.36 126.29 976.12 201.47 1008.11 290.06 983.13 364.24 903.73 416.6 830.96 458.56 812.44 491.13 879.43 521.64Q879.43 521.64 879.43 521.64" opacity="0.27"></path><path d="M866.09 509.93C968.94 538.65 1028.99 555.77 1013.33 555.4 937.66 548.33 841.24 518.57 765.07 476.45 718.34 454.23 701.34 462.05 694.6 519.04 697.68 611.17 689 700.05 660.29 729.2 631.57 681.15 585.52 585.34 532.68 500 489.65 459.02 461.82 467.14 470.91 499 565.6 557.86 395.71 472.99 490.37 412.14 589.88 359.75 658.51 287.89 683.65 204.85 670.89 135.34 646.52 96.76 633.32 116.69 619.8 180.98 627.2 265.15 655.92 313.2 684.64 284.05 731.96 206.81 795.25 135.74 858.21 99.79 927.4 122.43 977.81 182.29 990.31 262.06 952.14 336.63 873.68 393.47 810.92 443.62 800.85 481.21 866.09 509.93Q866.09 509.93 866.09 509.93" opacity="0.57"></path><path d="M853.43 483.41C980.97 515.74 903.63 489.42 780.87 443.93 721.1 435.66 688.23 458.03 669.88 522.06 661.91 610.75 648.75 691.13 621.83 716.3 594.91 673.15 556.77 584.97 518.08 500.7 489.77 450.23 480.62 443.15 505.09 462.43 587.36 524.35 406.17 454.54 484.25 385.47 578.5 330.39 654.52 260 694.63 186.66 700.81 132.09 689.61 110.62 681.81 141.34 669.87 205.88 675.37 283.15 702.3 326.3 729.22 301.13 775.02 231.66 833.62 162.71 888.08 118.41 941.3 124.6 970.4 168.16 965.58 235.08 918.12 304.8 843.6 361.9 791.64 416 789.79 456.49 853.43 483.41Q853.43 483.41 853.43 483.41" opacity="0.50"></path><path d="M840.16 445.33C961.84 473.98 917.29 446.93 802.44 417.66 734.91 423.17 689.33 457.81 660.21 526.1 640.51 609.94 621.72 681.77 596.6 703.22 571.47 664.77 542.37 584.46 518.53 502.86 504.1 445.52 510.46 424.84 545.05 430.85 613.65 470.55 602.93 497.56 476.16 468.15 414.88 443.02 420.08 403.7 479.85 351.51 566.25 297.77 645.09 233.64 696.28 173.46 719.67 134.52 723.13 128.54 723.63 167.46 717.66 230.65 724.26 300.77 749.39 339.22 774.52 317.77 815.8 256.12 865.31 190.7 908.36 140.83 944.12 132.85 953.66 160.28 935.41 211.82 883.23 272.37 815.25 325.75 773.9 379.36 778.88 420.2 840.16 445.33Q840.16 445.33 840.16 445.33" opacity="0.19"></path><path d="M827.43 401.22C942.5 427.45 928.05 409.74 826.32 399.18 756.97 417.21 703.54 461.33 666.35 531.16 636.53 608.95 612.41 672.31 589.08 690.3 565.74 656.33 545.4 584.04 534.78 506.54 531.54 444.99 548.55 412.98 587.32 406.14 626.96 420.58 665.21 438.31 677.24 446.67 644.91 456.17 573.55 450.21 489.43 426.88 430.51 403.54 428.68 365.04 476.42 315.11 552.85 266.31 630.54 212.17 688.93 167.14 726.76 143.4 744.73 150.66 754.97 195.1 757.87 255.5 767.78 318.33 791.12 352.3 814.45 334.31 849 280.41 886.53 219.72 916.74 167 935.18 147.62 927.93 160.18 900.13 195.33 847.18 243.73 787.86 290.16 757.22 339.21 768.51 377.89 827.43 401.22Q827.43 401.22 827.43 401.22" opacity="0.17"></path><path d="M814.46 356.87C922.36 381.73 935.53 380.48 850.79 388.86 784.91 417.31 728.73 467.84 686.87 536.67 649.85 607.45 621.65 662.51 600.12 677.31 578.58 647.59 565.74 583.35 565.43 511.17 569.96 448.03 592.53 407.41 630.17 389.12 662.51 390.28 688.01 398.48 687.37 402.29 649.33 409.05 580.13 403.4 502.46 381.86 446.38 360.32 438.71 324.94 475.09 280.84 540.17 239.71 613.02 197.89 674.16 168.51 722.05 158.56 752.23 176.33 771.79 223.68 784.44 280.08 798.77 335.59 820.31 365.31 841.84 350.51 868.55 304.18 893.23 249.18 911 196.14 914.45 168.46 894.79 168.24 861.89 187.51 811.88 222.29 762.59 259.59 741.98 300.94 758.37 335.32 814.43 356.86Q814.46 356.87 814.46 356.87" opacity="0.90"></path><path d="M801.23 318.32C901.43 342.56 938.64 361.31 873.24 386.8 815.31 422.94 761.37 476.69 718.71 542.24 678.34 605.31 648.07 652.35 628.33 664.24 608.59 638.54 601.24 582.26 607.38 516.4 615.83 454.11 638.96 407.87 671.01 380.34 693.77 369.13 706.34 366.96 694.59 364.6 652.53 366.12 586.34 358.98 515.23 339.24 462.44 319.5 450.12 289.01 476.08 253.28 529.15 221.42 594.23 192.77 653.98 178.11 707.04 179.76 745.78 205.06 772.84 252.87 794.27 304.26 812.97 352.54 832.71 378.24 852.45 366.35 871.37 327.31 884.16 278.71 891.32 227.64 883.39 194.83 856.21 184.57 822.34 189.75 778.2 210.98 739.6 238.2 728.12 269.95 748.44 298.57 801.23 318.32Q801.23 318.32 801.23 318.32" opacity="0.97"></path><path d="M788.43 291.03C914.09 326.93 948.25 346.54 890.56 392.71 790.18 482.04 704.79 603.94 668.89 651.3 632.99 581.84 653.39 458.07 706.71 379.98 717.35 350.58 654.09 340.93 528.43 305.03 459.08 269.13 524.31 213.79 629.96 196.13 730.31 227.17 790.61 321.84 826.51 391.3 862.4 343.94 867.1 251.14 813.8 208.87 755.2 209.75 719.08 255.13 788.43 291.03Q788.43 291.03 788.43 291.03" opacity="0.21"></path><path d="M775.46 278.55C890.07 310.85 935.52 344.27 901.31 405.37 824.31 493.92 748.34 600.5 716.03 638.31 683.72 579.89 701.2 468.53 735.85 387.23 727.71 339.82 656.07 316.02 541.46 283.71 473.3 251.4 516.98 216.71 605.29 221.77 702.74 260.72 770.26 345.89 802.57 404.31 834.88 366.5 825.86 286.12 770.76 239.9 724.8 221.15 707.3 246.23 775.43 278.54Q775.46 278.55 775.46 278.55" opacity="0.39"></path><path d="M762.43 282.61C865.28 311.33 917.61 354.63 903.79 423.31 852.22 506.17 791.18 596.16 762.47 625.3 733.75 577.25 742.79 480.32 756.72 401.02 732.9 342.18 657.28 306.96 554.43 278.24 488.95 249.52 513.54 232.74 582.45 253.94 668.77 295.61 735.93 369.25 764.65 417.3 793.37 388.16 778.2 321.45 729.52 276.24 698.26 245.19 696.95 253.89 762.43 282.61Q762.43 282.61 762.43 282.61" opacity="0.98"></path><path d="M749.23 302.63C839.7 327.76 894.71 375.73 897.06 444.65 869.72 517.84 826.25 590.8 801.13 612.24 776 573.79 773.96 492.52 768.36 419.73 733.08 356.61 657.7 314.44 567.23 289.31 505.9 264.18 514.66 260.85 563.99 291.03 633.48 330.89 693.58 391.79 718.71 430.24 743.83 408.8 729.23 356.21 692.68 315.96 676.29 279.97 687.9 277.5 749.23 302.63Q749.23 302.63 749.23 302.63" opacity="0.95"></path><path d="M736.46 336.05C814.12 357.58 867.64 404.72 880.97 467.46 873.61 528.23 847.23 584.52 825.7 599.31 804.16 569.59 791.53 504.4 770.66 441.62 729.1 381 658.12 337.14 580.46 315.61 524.38 294.07 520.57 298.93 551.56 331.31 601.34 365.86 649.6 413.59 671.14 443.31 692.67 428.52 683.41 389.69 661.87 357.15 659.11 322.64 680.38 314.51 736.46 336.05Q736.46 336.05 736.46 336.05" opacity="0.60"></path><path d="M723.46 378.12C849.09 414.01 868.75 538.97 832.86 586.31 796.96 516.85 719.09 389.23 593.46 353.34 524.08 317.44 594.03 386.85 629.93 456.31 665.82 408.97 654.08 342.22 723.46 378.12Q723.46 378.12 723.46 378.12" opacity="0.16"></path><path d="M710.42 423.2C813.27 451.92 850.06 544.17 821.34 573.3 792.63 525.25 709.27 426.11 606.42 397.39 540.94 368.68 572.44 421.25 601.15 469.3 629.87 440.17 644.94 394.49 710.42 423.2Q710.42 423.2 710.42 423.2" opacity="0.12"></path><path d="M697.46 465.07C794.79 516.06 734.26 497 619.46 441.88 565.52 436.47 626.05 455.53 697.46 465.07Q697.46 465.07 697.46 465.07" opacity="0.76"></path><path d="M684.46 498.08C658.55 496.82 626.59 487.06 684.46 498.08Q684.46 498.08 684.46 498.08" opacity="0.46"></path></g></svg>