<svg xmlns="http://www.w3.org/2000/svg" version="1.1" xmlns:xlink="http://www.w3.org/1999/xlink" xmlns:svgjs="http://svgjs.dev/svgjs" viewBox="0 0 1422 800" opacity="1"><defs><linearGradient x1="50%" y1="0%" x2="50%" y2="100%" id="ssscribble-grad"><stop stop-color="hsl(162, 100%, 58%)" stop-opacity="1" offset="0%"></stop><stop stop-color="hsl(193, 79%, 35%)" stop-opacity="1" offset="100%"></stop></linearGradient></defs><g fill="none" stroke-width="2.75" stroke="url(#ssscribble-grad)" stroke-linecap="round"><path d="M891.62 310.93C837.24 345.03 855.4 392.38 918.81 453.59 992.53 518.54 1023.43 596.65 1004.46 670.53 949.35 717.9 876.3 722.2 809.36 671.49 742.2 599.92 690.17 537.77 656.07 532.4 615.49 641.08 634.83 706.75 655.15 599.33 629.42 512.95 562.35 441.72 463.63 389.91 375.22 347.44 343.24 312.26 397.62 278.16 538.23 229.15 532.55 199.34 462.54 250.02 444.61 284.87 463.79 304.44 502.58 279.34 552.25 203.45 599.85 104.52 633.96 38.4 668.07 43.77 685.44 119.74 694.87 216.3 715.18 292.02 749.22 323.88 811.84 321.21 944.63 279.59 1025.33 268 891.65 310.92Q891.62 310.93 891.62 310.93" opacity="0.61"></path><path d="M878.61 340.59C825.13 372.89 836.49 420.94 891.79 482.45 963.45 544.64 1002.89 615.08 998.45 675.44 960.62 708.43 900.33 700.39 840.18 645.49 776.72 577.8 726.02 522.54 693.71 519.41 655.97 621.08 667.11 704.91 667.52 615.47 629.62 534.33 555.91 461.69 460.57 406.01 381.59 357.04 357.13 318.18 410.61 285.87 554.64 238.43 469.85 314.5 498.55 283.49 535.47 206.46 575.47 112.8 607.77 51.41 640.09 54.54 661.65 122.89 680.71 214.26 710.34 292.84 756.09 335.16 826.71 344.51 953.96 316.48 1007.18 301.51 878.64 340.58Q878.61 340.59 878.61 340.59" opacity="0.41"></path><path d="M865.65 375.83C813.29 406.34 818.39 453.22 865.33 511.94 933.04 568.84 978.13 629.18 986.03 675.08 964.87 694.54 918.79 676.19 867.64 619.09 811.01 556.06 763.73 507.52 733.22 506.39 702.71 563.13 691.84 638.81 695.6 693.45 693.86 713.65 692.32 685.93 673.49 629.25 625.6 556.34 548.14 485.83 458.06 429 388.75 376.19 371.29 334.96 423.65 304.44 512.78 273.93 592.84 257.02 629.36 256.96 614.49 260.91 571.92 283.79 531.66 316.71 497.05 333.4 490.1 328.75 505.32 286.18 529.83 209.18 561.91 121.13 592.42 64.39 622.94 65.52 649 126.42 677.37 211.82 715.03 291.29 769.6 342.01 844.2 362.53 961.92 350.27 988.62 339.68 865.65 375.83Q865.65 375.83 865.65 375.83" opacity="0.27"></path><path d="M852.91 413.3C801.76 442.02 800.98 486 839.4 539.28 935.5 638.13 820.43 513.61 770.63 493.29 741.91 545.5 729.35 616.02 727.04 670.8 718.06 698.56 704.73 683.61 673.07 639.45 617.7 577.02 539.27 511.78 456.09 456.49 396.62 402.72 385.76 360.71 436.91 331.99 520.68 303.27 598.8 290.57 640.47 294.57 636.76 300.09 604.4 320.51 568.45 345.29 531.5 351.81 516.44 336.3 522.59 287.49 536.14 211.66 560.71 129.5 589.43 77.29 618.15 76.61 648.29 130.25 684.51 209.04 728.13 287.56 788.02 344.47 862.6 374.8 967.61 379.12 969.92 379.22 852.91 413.3Q852.91 413.3 852.91 413.3" opacity="0.59"></path><path d="M839.65 449.7C790.29 476.63 784.68 516.29 815.01 562.09 917.44 629.69 846.19 495.97 801.29 480.39 774.36 528.17 759.03 593.33 749.5 647.2 733.05 680.76 708.98 677.2 667.18 645.42 607.37 594.94 530.74 537.49 455.65 486.15 405.59 434.24 400.29 393.12 449.65 366.19 527.94 339.27 603.65 329.09 649.58 334.34 656.4 339.03 635.04 354.46 605.59 369.65 569.91 366.14 550.23 341.14 549.7 287.85 554.33 214.24 572.3 138.17 599.22 90.39 626.14 88.11 659.48 134.75 701.5 206.45 748.7 282.32 810.4 343.11 881.36 381.45 971.06 401.86 950.34 416.96 839.65 449.7Q839.65 449.7 839.65 449.7" opacity="0.89"></path><path d="M826.85 481.19C779.24 506.32 769.08 540.67 791.38 577.75 838.91 609.71 884.79 634.05 913.39 639.61 929.67 628.31 923.7 592.59 903.66 539.28 877.2 493.41 847.98 463.64 822.86 467.31 797.73 510.79 779.06 570.44 761.98 622.44 738.46 660.02 705.22 666.2 656 646.09 594.47 608.14 521.94 560.26 455.98 514.79 415.27 467.22 415.24 428.55 462.85 403.43 535.74 378.3 608.29 369.08 656.92 373.11 672.71 375.03 662.07 383.69 640.49 388.7 609.19 375.88 588.47 343.05 584.04 287.04 582.58 216.62 595.39 146.79 620.52 103.31 645.65 99.64 680.71 139.59 725.73 203.88 773.7 275.61 833.64 337.99 897.88 382.22 952.39 409.6 989.69 424.48 992.32 436.07 962.1 442.53 899.74 456.06 826.85 481.19Q826.85 481.19 826.85 481.19" opacity="0.60"></path><path d="M813.65 505.12C768.23 528.46 754.52 556.98 769.5 584.94 808.8 607.98 850.5 621.36 880.35 616.86 902.99 599.6 906.41 562.56 895.15 513.32 878.5 473.72 855.86 449.55 832.53 454.39 809.19 493.7 787.37 547.75 763.58 597.04 734.41 636.94 694.57 650.96 641.34 641.31 580.92 615.69 514.47 578.3 458.06 540.05 425.97 498.72 430.23 463.82 475.65 440.49 543.01 417.15 611.95 407.6 662.27 408.48 685.83 406.3 685.55 407.28 672.77 402.31 648.25 381.37 629.56 342.61 623.8 285.6 619.02 219.21 628.27 155.7 651.6 116.39 674.94 111.55 710.15 145.18 755.37 201.88 801.56 268.22 856.67 330.01 911.77 377.86 955.14 412.94 980.16 435.98 973.7 453.38 940.49 465.85 881.01 481.79 813.65 505.12Q813.65 505.12 813.65 505.12" opacity="0.26"></path><path d="M800.62 518.99C841.94 504.02 795.87 500.89 754.68 570.98 721.62 611.56 677.96 631.42 623.88 630.64 566.94 616.4 508.1 589.6 461.53 559.22 437.55 525.38 445.52 495.16 488.62 473.63 550.52 452.09 615.29 441.26 665.98 437.78 695.56 430.83 704.51 424.02 700.56 410.03 684.31 382.57 670.06 339.87 665.27 283.5 659.91 221.83 667.23 164.68 688.77 129.4 710.3 123.6 744.01 151.32 786.7 200.42 828.81 260.37 876.68 319.6 921.17 368.77 953.35 409.1 967.26 438.58 953.47 460.97 918.58 479.07 862.54 497.44 800.65 518.98Q800.62 518.99 800.62 518.99" opacity="0.97"></path><path d="M787.8 521.46C817.98 484.93 781.44 481.14 736.32 544.44 701.47 584.23 656.91 607.92 604.97 614.16 553.53 609.75 503.4 592.86 466.59 570.36 450.06 544.47 461.15 519.43 501.8 499.69 558.26 479.94 618.42 467.36 668.27 459.04 702.08 447.32 718.72 433.4 723.01 411.93 715.56 379.81 707.3 335.17 705.19 280.91 701.45 224.57 708.28 173.72 728.03 142.33 747.77 135.8 778.56 158.06 816.51 199.7 852.84 252.55 891.92 307.52 925.24 355.85 946.83 398.8 951.13 432.61 931.8 458.67 896.42 481.35 844.26 501.72 787.8 521.46Q787.8 521.46 787.8 521.46" opacity="0.76"></path><path d="M774.65 512.52C726.92 553.32 820.82 451.72 788.03 415.39 752.13 486.34 680.93 563.84 586.71 592.41 503.36 590.27 459.58 552.3 514.65 516.4 619.65 480.5 706.14 453.48 739.66 408.57 732.65 332.94 729.97 226.34 765.87 155.39 801.77 163.18 869.45 249.36 923.5 340.32 937.03 421.43 879.65 476.62 774.65 512.52Q774.65 512.52 774.65 512.52" opacity="0.97"></path><path d="M761.62 492.83C709.3 525.37 781.24 427.89 753.82 402.4 721.51 463.78 653.24 533.5 569.97 565.81 502.66 577.45 474.14 554.3 527.62 521.99 622.11 489.68 707.29 454.34 749.89 400.35 759.2 325.69 765.5 229.78 797.81 168.4 830.12 171.55 882.32 242.43 915.36 323.21 915.11 402.5 856.12 460.51 761.65 492.82Q761.62 492.83 761.62 492.83" opacity="0.13"></path><path d="M748.65 464.29C693.69 490.6 739.2 405.17 715.07 389.39 686.35 441.6 625.19 502.37 556.27 535.24 504.99 555.92 489.67 544.69 540.65 515.97 624.37 487.26 705.55 446.48 753.74 388.16 776.65 317.65 791.9 233.6 820.62 181.39 849.34 180.71 886.09 236.92 900.81 305.79 890.26 378.75 832.37 435.58 748.65 464.29Q748.65 464.29 748.65 464.29" opacity="0.67"></path><path d="M735.8 429.6C680.22 451.46 698.1 383.75 675.74 376.33 650.61 419.81 599.58 470.92 546.75 501.66 510.6 526.73 506.21 524.01 553.8 498.88 626.67 473.75 701.42 430.97 751.56 372.97 784.18 309.29 806.82 237.81 831.95 194.33 857.08 190.66 879.93 233.21 880.26 289.31 863.04 352.43 808.67 404.47 735.8 429.6Q735.8 429.6 735.8 429.6" opacity="0.41"></path><path d="M722.62 392.21C668.92 411.01 661.81 364.03 640.47 363.4 618.93 398.68 579.54 439.85 542.69 466.43 519.78 491.74 523.53 494.05 566.62 472.51 628.52 450.97 694.88 409.67 743.67 356.12 781.64 301.31 809.12 242.68 830.66 207.4 852.19 201.6 863.71 231.92 853.97 275.16 833.41 326.21 784.52 370.67 722.62 392.21Q722.62 392.21 722.62 392.21" opacity="0.42"></path><path d="M709.62 355.5C654.58 391.39 648.26 358.18 612.37 350.4 576.47 421.35 524.58 475.07 579.62 439.18 684.64 403.28 780.91 291.35 816.81 220.4 852.7 228.18 814.64 319.6 709.62 355.5Q709.62 355.5 709.62 355.5" opacity="0.80"></path><path d="M696.64 322.98C645.66 351.7 623.31 336.7 594.59 337.4 565.88 389.6 541.66 430.87 592.64 402.15 676.34 373.44 763.18 285.6 791.89 233.4 820.61 232.7 780.34 294.27 696.64 322.98Q696.64 322.98 696.64 322.98" opacity="0.14"></path><path d="M683.62 297.84C640.53 319.37 610.55 318.6 589.02 324.4 567.48 359.68 562.53 386.4 605.62 364.87 667.52 343.33 736.94 281.68 758.48 246.4 780.01 240.6 745.52 276.3 683.62 297.84Q683.62 297.84 683.62 297.84" opacity="0.29"></path><path d="M670.62 282.38C643.42 308.93 722.64 260.01 670.62 282.38Q670.62 282.38 670.62 282.38" opacity="0.36"></path></g></svg>