<svg xmlns="http://www.w3.org/2000/svg" version="1.1" xmlns:xlink="http://www.w3.org/1999/xlink" xmlns:svgjs="http://svgjs.dev/svgjs" viewBox="0 0 1422 400" opacity="1"><defs><linearGradient x1="50%" y1="0%" x2="50%" y2="100%" id="ssscribble-grad"><stop stop-color="hsl(162, 100%, 58%)" stop-opacity="1" offset="0%"></stop><stop stop-color="hsl(193, 79%, 35%)" stop-opacity="1" offset="100%"></stop></linearGradient></defs><g fill="none" stroke-width="2.75" stroke="url(#ssscribble-grad)" stroke-linecap="round"><path d="M996.76 338.39C856.11 372.49 855.23 417.71 966.73 471.86 1045.62 527.09 991.04 590.45 872.14 652.95 762.63 704.35 715.24 736.97 704.83 737.08 717.61 710.29 715.14 654.61 681.03 586.85 646.93 538.63 584.42 518.41 512.54 525.16 533.58 602.59 368.59 571.84 502.76 521.99 585.74 487.88 501.9 454.41 389.4 418.89 385.81 378.23 501.59 327.49 620.19 265.36 680.55 197.55 675.22 126.88 656.45 69.98 628.25 38.24 629.54 44.63 663.65 92.85 697.74 160.61 761.42 230.11 848.72 281.89 955.88 308.56 855.81 280.77 844.56 279.57 982.05 284.52 1079.74 304.28 996.8 338.38Q996.76 338.39 996.76 338.39" opacity="0.70"></path><path d="M983.75 362.92C847.98 395.22 833.31 439.1 931.25 491.42 1024.3 543.73 1003.87 602.12 905.76 657.34 789.27 700.85 715.05 725.48 680.88 720.08 671.42 691.59 660.3 637.89 627.99 573.83 570.46 516.42 488.79 549.43 574.84 587.12 623.68 607.83 379.19 564.55 515.75 518.77 598.98 486.46 530.11 451.86 418.18 413.41 387.43 370.76 475.71 318.15 593.5 256.19 681.21 191.48 708.21 126.57 708.15 76.66 690.11 50.55 691.03 59.37 723.34 105.83 755.64 169.89 816.27 236.68 890.31 288.85 958.08 322.75 821.99 309.55 849.39 309.25 984.99 312.92 1066.98 330.6 983.79 362.91Q983.75 362.92 983.75 362.92" opacity="0.07"></path><path d="M970.8 389.18C840.35 419.7 813.31 461.54 895.59 510.93 995.92 559.43 1006.7 611.98 935.79 659.47 826.31 695.22 736.36 712.46 682.23 702.32 649.01 672.68 625.79 621.18 595.28 560.84 547.3 504.58 532.6 525.15 623.25 559.02 654.16 579.41 611.02 584.9 488.33 575.65 383.68 563.2 398.35 540.3 528.8 509.78 611.67 479.27 557.46 444.03 449.88 403.61 396.79 359.97 454.44 306.87 560.93 246.48 663.92 185.77 719.53 127.1 741.46 84.12 742.17 63.29 749.47 74.22 779.99 118.84 810.5 179.18 861.33 243.05 913.5 295.05 940.46 335.12 794.33 336.97 857.14 338.89 987.09 342.38 1053.67 358.67 970.8 389.18Q970.8 389.18 970.8 389.18" opacity="0.95"></path><path d="M958.25 415.91C833.45 444.63 795.23 483.82 860.23 529.34 961.21 573.32 998.2 619.42 957.58 659.02 867.06 687.32 774.35 697.84 707.86 683.73 654.96 653.47 619.72 604.37 591 547.74 552.54 492.9 586.6 501.65 663.42 530.76 666.4 550.68 598.95 558.13 476.92 551.97 390.87 543.54 417.45 524.12 542.25 495.4 623.82 466.68 583.35 431.39 483.3 390.04 413.82 346.44 440.97 294.17 528 236.61 633.04 180.68 708.51 128.56 750.57 92.31 773.13 76.37 790.85 89.07 819.57 131.74 848.28 188.37 885.29 249.11 912.49 300.42 904.88 345.55 774.42 362.27 866.61 367.41 987.71 371.66 1039.82 387.19 958.25 415.91Q958.25 415.91 958.25 415.91" opacity="0.34"></path><path d="M944.8 442.05C826.3 468.98 779.53 505.02 827.33 545.96 922.79 584.94 978.35 624.25 966.55 656.06 902.61 677.37 819.46 681.95 750.41 664.67 686.55 634.27 642.88 587.77 615.96 534.84 585.22 481.69 641.56 479.41 690.78 503.1 667.29 521.46 583.18 529.65 467.98 525.56 400.44 520.08 436.3 503.53 554.8 476.6 635.27 449.68 608.62 414.94 518.97 373.75 438.61 331.18 436.84 280.97 498.67 227.33 593.48 176.78 677.76 131.36 734.41 101.56 776.92 90.08 806.01 104.22 832.94 144.84 859.86 197.77 882.07 255.19 886.21 305.32 855.1 354.32 763.07 385.12 878.32 394.15 987.71 399.88 1025.27 415.13 944.8 442.05Q944.8 442.05 944.8 442.05" opacity="0.49"></path><path d="M932.16 465.98C820.17 491.11 765.91 523.65 796.09 559.51 914.27 609.46 895.62 664.74 801.29 644.8 736.53 614.74 689.74 570.98 664.61 521.76 638.94 470.56 690.78 458.22 703.81 476.1 657.32 492.01 563.92 499.86 460.69 496.93 412.09 493.36 456.17 479.05 568.16 453.92 646.33 428.79 631.7 395.22 554.26 355.24 469.57 314.62 444.12 267.56 479.21 218.72 554.29 173.94 635.32 135.21 697.95 111.5 753.4 104.03 791.3 119.28 816.43 157.76 841.56 206.98 851.54 260.92 839.63 309.41 820.55 347.5 778.74 374.68 736.6 392.66 734.45 401.24 786.55 407.98 889.66 417.83 985.52 425.51 1010.33 440.85 932.16 465.98Q932.16 465.98 932.16 465.98" opacity="0.83"></path><path d="M918.8 486.88C813.77 510.22 754.49 539.02 768.54 569.59 894.92 629.55 769.32 574.8 724.01 508.84 700.43 459.85 725.72 438.62 701.88 450.54 639.22 463.35 544.69 469.97 457.1 467.39 425.95 464.77 475.77 452.12 580.8 428.79 656.61 405.46 653.48 373.64 589.91 335.82 506.44 297.97 462.94 254.93 472.11 211.54 521.4 172.76 589.03 140.56 648.84 122.48 708.25 118.57 750.44 134.59 773.78 170.84 797.11 216.37 799.38 266.69 780.4 313.09 761.03 351.49 729.82 381 711.11 402.26 732.52 415.39 800.77 425.97 901.35 438.02 982.02 447.9 994.61 463.55 918.8 486.88Q918.8 486.88 918.8 486.88" opacity="0.75"></path><path d="M905.76 503.51C807.97 525.04 745.27 550.05 744.42 575.32 798.01 598.54 863.79 618.15 906.89 629.45 925.38 633.95 910.2 625.86 879.2 603.68 838.37 575.54 802.08 537.71 780.54 495.85 759 461.92 754.25 436.71 757.76 421.78 751.43 418.94 733 422.05 686.28 426.57 570.63 438.23 468.98 429.48 593.76 402.19 666.44 380.65 673.09 351.11 623.88 316.26 546.73 281.82 492.42 243.48 479.99 205.95 502.27 173.2 549.8 147.25 599.27 134.3 653.4 133.44 694.35 149.92 715.89 183.85 737.44 225.7 737.53 272.27 720.73 316.19 708.59 354.17 694.66 385.1 700.6 408.83 741.25 425.76 818.4 439.76 911.34 453.87 976.35 465.93 978.46 481.96 905.8 503.5Q905.76 503.51 905.76 503.51" opacity="0.39"></path><path d="M893.07 515.05C802.77 534.79 738.3 556.07 724.37 576.27 759.87 594.66 815.75 608.67 862.01 614.67 896.16 615.23 902 604.69 888.6 582.31 865.82 555.69 839.97 520.97 820.23 482.78 800.48 451.25 788.71 426.64 777.28 410.45 756.46 404.38 719.81 403.56 659.78 404.55 549.23 411.36 488.54 400.53 607.07 375.41 675.91 355.66 690.55 328.81 655.44 297.56 588.5 267.02 530.49 233.81 502.65 202.32 500.82 175.45 526 155.33 560.58 146.92 602.45 148.64 637.4 165.25 657.15 196.78 676.89 234.97 679.55 277.7 671.9 318.78 671.54 355.64 677.17 387.12 704.88 412.44 758.6 432.32 837.55 449.12 918.96 464.95 968.55 478.96 961.91 495.3 893.07 515.05Q893.07 515.05 893.07 515.05" opacity="0.96"></path><path d="M879.8 521.15C735.39 573.21 874.59 564.98 832.92 469.84 797.02 419.96 743.58 394.09 627.63 385.01 505.14 392.69 474.74 385.84 619.8 349.94 701.91 314.04 618.26 255.9 538.85 201.16 520.76 163.2 575.19 159.96 611.09 209.84 646.99 281.3 657.55 357.76 722.69 413.43 849.16 452.57 961.91 485.25 879.8 521.15Q879.8 521.15 879.8 521.15" opacity="0.68"></path><path d="M866.76 521.35C718.65 565.4 841.28 543.12 815.9 456.85 783.59 410.38 711.25 381.91 594.19 367.99 498.5 368.7 496.99 359.15 632.76 326.84 715.99 294.53 660.22 245.58 584.85 202.53 536.72 174.1 557.44 176.38 589.75 222.85 622.05 286.9 659.84 357.53 750.31 411.81 868.01 454.04 949.99 489.03 866.8 521.34Q866.76 521.35 866.76 521.35" opacity="0.14"></path><path d="M853.8 515.65C729.12 544.37 684.03 560.52 711.98 554.96 776.31 541.18 801.88 500.47 773.16 443.84 744.44 401.17 666.87 371.34 564.9 353.75 499.32 348.24 521.12 335.98 645.8 307.26 713.12 258.68 571.95 189.9 598.09 235.84 626.81 292.47 683.96 356.46 783.26 407.88 883.19 451.09 935.76 486.94 853.8 515.65Q853.8 515.65 853.8 515.65" opacity="0.27"></path><path d="M841.07 504.32C729.09 529.45 669.99 539.8 673.16 530.63 715.97 516.32 740.07 480 714.94 430.78 689.81 392.3 620.21 362.35 544.47 342.35 508.37 331.79 547.09 317.24 659.07 292.11 734.2 251.51 618.32 205.51 633.86 248.78 658.99 298 723.67 354.69 816.1 401.93 892.72 444.04 919.3 479.19 841.07 504.32Q841.07 504.32 841.07 504.32" opacity="0.25"></path><path d="M827.76 488.06C729.98 509.6 664.3 515.69 647.28 504.81 664.44 491.1 677.83 459.7 656.29 417.85 634.75 383.92 582.37 355.07 536.97 334.03 525.76 319.89 573.98 303.85 671.76 282.31 750.77 249.29 678.04 222.22 688.94 261.85 710.48 303.7 770.75 352.56 844.45 394.5 895.64 433.61 900.44 466.52 827.76 488.06Q827.76 488.06 827.76 488.06" opacity="0.18"></path><path d="M814.76 467.48C669.74 503.37 646.6 476.3 610.71 404.85 574.81 354.97 539.74 314.02 684.76 278.13 766.91 242.23 713.27 224.97 749.17 274.85 785.06 346.3 896.91 431.58 814.76 467.48Q814.76 467.48 814.76 467.48" opacity="0.38"></path><path d="M801.79 443.61C677.11 472.33 618.38 448.46 589.66 391.82 560.95 349.17 573.11 308.54 697.79 279.82 779.74 251.11 771.3 245.17 800.01 287.82 828.73 344.46 883.74 414.9 801.79 443.61Q801.79 443.61 801.79 443.61" opacity="0.38"></path><path d="M788.76 417.68C691 439.21 619.88 420.69 598.35 378.85 576.81 344.92 613 308.88 710.76 287.35 783.44 265.81 807.58 266.92 829.12 300.85 850.65 342.69 861.44 396.14 788.76 417.68Q788.76 417.68 788.76 417.68" opacity="0.28"></path><path d="M775.76 390.87C709.35 405.22 648.95 393.18 634.6 365.85 620.24 342.04 657.35 314.67 723.76 300.32 778.69 285.96 814.92 290.04 829.28 313.85 843.63 341.18 830.69 376.51 775.76 390.87Q775.76 390.87 775.76 390.87" opacity="0.08"></path></g></svg>
